<svg id="visual" viewBox="0 0 900 600" width="900" height="600" xmlns="http://www.w3.org/2000/svg" xmlns:xlink="http://www.w3.org/1999/xlink" version="1.1"><rect x="0" y="0" width="900" height="600" fill="#dddddd"></rect><defs><linearGradient id="grad1_0" x1="33.3%" y1="0%" x2="100%" y2="100%"><stop offset="20%" stop-color="#4facf7" stop-opacity="1"></stop><stop offset="80%" stop-color="#4facf7" stop-opacity="1"></stop></linearGradient></defs><defs><linearGradient id="grad1_1" x1="33.3%" y1="0%" x2="100%" y2="100%"><stop offset="20%" stop-color="#4facf7" stop-opacity="1"></stop><stop offset="80%" stop-color="#dddddd" stop-opacity="1"></stop></linearGradient></defs><defs><linearGradient id="grad2_0" x1="0%" y1="0%" x2="66.7%" y2="100%"><stop offset="20%" stop-color="#4facf7" stop-opacity="1"></stop><stop offset="80%" stop-color="#4facf7" stop-opacity="1"></stop></linearGradient></defs><defs><linearGradient id="grad2_1" x1="0%" y1="0%" x2="66.7%" y2="100%"><stop offset="20%" stop-color="#dddddd" stop-opacity="1"></stop><stop offset="80%" stop-color="#4facf7" stop-opacity="1"></stop></linearGradient></defs><g transform="translate(900, 0)"><path d="M0 459.7C-52.3 461.5 -104.6 463.3 -142.1 437.2C-179.6 411.1 -202.3 357 -233.9 322C-265.6 287 -306.1 271 -332.5 241.6C-358.9 212.1 -371.1 169.2 -389.9 126.7C-408.8 84.2 -434.2 42.1 -459.7 0L0 0Z" fill="#a3c4eb"></path><path d="M0 229.9C-26.1 230.8 -52.3 231.7 -71 218.6C-89.8 205.5 -101.1 178.5 -117 161C-132.8 143.5 -153.1 135.5 -166.3 120.8C-179.4 106.1 -185.5 84.6 -195 63.3C-204.4 42.1 -217.1 21 -229.9 0L0 0Z" fill="#4facf7"></path></g><g transform="translate(0, 600)"><path d="M0 -459.7C49.7 -457.8 99.4 -455.9 142.1 -437.2C184.7 -418.5 220.3 -382.9 254.5 -350.3C288.7 -317.7 321.5 -288 347.9 -252.7C374.3 -217.5 394.2 -176.8 411.8 -133.8C429.4 -90.8 444.5 -45.4 459.7 0L0 0Z" fill="#a3c4eb"></path><path d="M0 -229.9C24.9 -228.9 49.7 -228 71 -218.6C92.4 -209.2 110.2 -191.5 127.3 -175.2C144.4 -158.8 160.7 -144 173.9 -126.4C187.1 -108.8 197.1 -88.4 205.9 -66.9C214.7 -45.4 222.3 -22.7 229.9 0L0 0Z" fill="#4facf7"></path></g></svg>